<svg xmlns="http://www.w3.org/2000/svg" viewBox="0 0 1065.55 900"><defs><style>.cls-1{fill:red;}.cls-2{fill:#fff;}.cls-3{fill:#f6f5db;}.cls-4{fill:#681b28;}</style></defs><title>kolinje_logo</title><g id="Layer_1" data-name="Layer 1"><circle cx="543.35" cy="275" r="275"/><circle cx="378.35" cy="625" r="275"/><circle cx="728.35" cy="625" r="275"/></g><g id="Layer_2" data-name="Layer 2"><circle class="cls-1" cx="543.35" cy="275" r="262.5"/><circle class="cls-1" cx="728.85" cy="625.5" r="262.5"/><circle class="cls-1" cx="378.85" cy="625.5" r="262.5"/></g><g id="Layer_3" data-name="Layer 3"><path class="cls-2" d="M137.05,774.4c-29.52,0-44.11-16.89-50.18-27-8.74-14.51-10-31.06-10.07-43.86l-.09-73.07a83.55,83.55,0,0,1-8.46.44C32.52,631,4.31,607.06-2,571.5c-5-28.6,3.77-56.08,24.81-77.36C41,475.76,67.85,463,100.4,457.27l21.74-3.83a93.27,93.27,0,0,1,16.44-1.55c21.26,0,34.64,9,42.11,16.47a56.08,56.08,0,0,1,7.63,9.55,111.36,111.36,0,0,1,11.92-18.55c12.22-15.22,27.62-24.56,45.75-27.76a79.18,79.18,0,0,1,13.66-1.23c32.32,0,57.88,21.79,63.6,54.22,5.24,29.72-9.33,53.21-23.4,64.29l-40.13,31.59-3-6.58v.05q-.83,2.61-1.71,5.25a86.7,86.7,0,0,1,15.4,23l5.38,11.35,22.68-4a49.11,49.11,0,0,1,8.51-.75c25.24,0,44.51,19,45.82,45.28,1.93,38.35-33.25,89.53-81.5,98a87.48,87.48,0,0,1-15.12,1.35,73.34,73.34,0,0,1-45.06-15l-20.46,18.42c-4.86,4.38-16.16,12.27-37.23,16A93.63,93.63,0,0,1,137.05,774.4Z" transform="translate(3.35 -100)"/><path class="cls-2" d="M216.5,680.83,195.28,634.2c-5.85-12.94-12.43-18.92-25-16.7l-11.34,2,0,77.65c.11,22.73,5,30,5,30s-4.48,4-17.4,6.32c-23.32,4.11-29.51-5.2-29.7-30.19l-.21-174.45a113.4,113.4,0,0,0-1.15-15.72l-2.84.5c-28.68,5-40,23.63-36.85,41.59C77.3,564,83,568.86,90.91,567.47a13.15,13.15,0,0,0,5.19-1.89,10,10,0,0,1,.81,2.78c1.34,7.57-4.76,19-20.84,21.88-20.48,3.61-35.31-6.78-38.64-25.68-5.5-31.2,19.17-58.95,69.91-67.9l21.75-3.83c23.32-4.11,29.82,5.14,29.69,30.18l-.1,78.66,10.08-1.78c12.92-2.28,23.06-14.79,31.67-39.71l14.13-41.48c10.5-30.77,21.68-44.76,38.38-47.71s28.14,4.79,30.92,20.54a27.66,27.66,0,0,1-8.76,25.92s-5.85-12.94-21-10.27c-14.18,2.5-22.14,12.67-28.22,31.62l-7.31,23.06c-5.41,17.2-11.29,29.93-19.39,35.59,16.67-1.32,27.73,6.15,35,21.76l20.18,42.59c7.25,15.29,13.63,22,23.71,20.19,14.5-2.56,24.92-24.54,27.31-33.09,4.73-.83,7.18,2,7.43,7.14.91,18-19.82,51.59-48.5,56.64C242,716.63,227.57,704.87,216.5,680.83Z" transform="translate(3.35 -100)"/><path class="cls-2" d="M347.73,736.88c-48.84,0-86.23-33-95.25-84.17-6.71-38-1.08-73.28,16.27-101.9,18.39-30.32,49-50.64,86.3-57.21a116.5,116.5,0,0,1,20.07-1.8c33.26,0,61.19,15.47,78.41,41.63l5.85-1a47.15,47.15,0,0,1,8.2-.72c25,0,44.68,19.48,45.77,45.31l0,.74v.75c.12,24.9-18.87,51.44-46.13,67.48-13.13,47-49.73,80.33-99.83,89.17A114.24,114.24,0,0,1,347.73,736.88Z" transform="translate(3.35 -100)"/><path class="cls-2" d="M430.6,583a135.13,135.13,0,0,1,1.92,20.14c23-7.64,33.8-31.31,33.8-31.31,4.1-.72,6.86,2,7.06,6.88.06,11.36-16.8,31.88-41.45,39.48-4.1,39.39-28.6,70-71.46,77.59-33.4,5.89-61.71-10.89-68.6-50C281.81,588.73,308.11,542.5,362,533,398.87,526.49,424.26,547,430.6,583Zm-44.27-13.31c-4.35-15.48-13.1-22.71-24.76-20.66-15.76,2.78-29.31,21.74-29.86,70.26-.13,8.47,1.5,25.08,2.89,33,3.5,19.85,13,29.55,26.25,27.21,17-3,28-23.46,29.55-62.72-8.93-4.6-14.53-12.39-16.36-22.79C372.15,583.2,376.32,573.69,386.33,569.65Z" transform="translate(3.35 -100)"/><path class="cls-2" d="M501.86,710.12c-19.13,0-36.45-6.54-50.09-18.92-13-11.82-21.71-28.33-25.13-47.75a224.68,224.68,0,0,1-3.06-37.33l.07-167.42a62.5,62.5,0,0,0-.59-9.24l-16.61-25.1,26.51-23c4.7-4.09,15.53-11.45,35.17-14.92a99.58,99.58,0,0,1,17.37-1.66c29.54,0,43.7,16.9,49.5,27,7.73,13.39,8.83,28.23,8.89,41V566.24l1.64-.29a48.68,48.68,0,0,1,8.48-.75c25.92,0,45.65,20.16,45.9,46.9V613c-.21,17.8-8.37,39-21.82,56.66-16.07,21.13-37.85,35-61.31,39.18A86.47,86.47,0,0,1,501.86,710.12Zm42.24-93.7Z" transform="translate(3.35 -100)"/><path class="cls-2" d="M463.65,438.71c0-20.46-4.47-27.16-4.47-27.16s4.23-3.67,15.89-5.72c24.26-4.28,28.71,4.36,28.82,27.08V613.58c.13,19.15,7.1,27.34,18.44,25.34,12.61-2.22,25-15.12,30.15-33.58,4.1-.72,7.38,1.3,7.43,7.14-.2,17.25-19.51,51.53-50.07,56.92-21.75,3.83-39.38-7.68-43.82-32.89a186.94,186.94,0,0,1-2.45-30.44Z" transform="translate(3.35 -100)"/><path class="cls-2" d="M587.89,695c-19.13,0-36.44-6.54-50.08-18.92-13-11.82-21.72-28.33-25.14-47.75a223.93,223.93,0,0,1-3-37.33l-.2-60a69.79,69.79,0,0,0-.56-9.2l-17.07-24.9L514,477.53a61.55,61.55,0,0,1-6.6-18.92c-6-34.23,16.62-66.95,50.51-72.92a63.54,63.54,0,0,1,11-1c29.18,0,53.17,20.5,58.34,49.84a61.53,61.53,0,0,1-9.39,44.88c1.11,1.56,2,3.05,2.84,4.41,7.72,13.39,8.83,28.24,8.89,41l.09,26.27a48.74,48.74,0,0,1,8.4-.74c25.92,0,45.65,20.17,45.9,46.9v.86c-.21,17.63-7.8,38.47-20.31,55.74-15.55,21.45-37.19,35.57-60.93,39.76A86.47,86.47,0,0,1,587.89,695Z" transform="translate(3.35 -100)"/><path class="cls-2" d="M549.42,530.82C549.33,510,545,503.66,545,503.66s4.22-3.67,15.88-5.73c24.27-4.28,28.72,4.36,28.83,27.09l.26,73.39c.19,19.47,7.1,27.34,18.45,25.34,10.71-1.88,23.06-14.79,28.25-33.25,4.1-.72,7.38,1.3,7.43,7.14-.2,17.26-17.61,51.2-48.18,56.59-21.75,3.83-39.38-7.68-43.82-32.89a186,186,0,0,1-2.44-30.44ZM564.9,425.08c12-2.11,21,5.07,23,16.41,2,11-5,23.3-18.85,25.75-11.35,2-20.3-4.55-22.24-15.58C544.56,438.74,552.92,427.19,564.9,425.08Z" transform="translate(3.35 -100)"/><path class="cls-2" d="M654.46,683.12c-29.54,0-43.69-16.9-49.5-27-7.73-13.39-8.83-28.23-8.89-41l-.3-99.45a64.18,64.18,0,0,0-.59-9.38l-16.6-25.09,26.5-23c4.7-4.08,15.53-11.45,35.17-14.91a99.74,99.74,0,0,1,17.37-1.67,61.16,61.16,0,0,1,25.89,5.3c11.44-9,24.58-15.6,39.31-18.19A82,82,0,0,1,737,427.49c35.68,0,63.93,24.29,70.31,60.45,1.41,8,2.09,17.48,2.25,31.45a49,49,0,0,1,7.89-.65c25.85,0,45.55,20.07,45.9,46.71.53,34.31-29.68,87.46-80.3,96.39a88.57,88.57,0,0,1-15.36,1.37,75.46,75.46,0,0,1-42.36-12.6L707,666.54c-4.7,4.08-15.52,11.45-35.16,14.91A99.85,99.85,0,0,1,654.46,683.12Z" transform="translate(3.35 -100)"/><path class="cls-2" d="M729.33,517.29c-.15-15.57-4.13-19.74-11.07-18.52-19.85,3.5-41.51,55.74-42,110.4,0,20.47,4.47,27.16,4.47,27.16s-4.23,3.67-15.89,5.73c-24.26,4.28-28.71-4.36-28.82-27.09l-.3-99.38c0-20.46-4.47-27.16-4.47-27.16s4.23-3.67,15.89-5.72c24.27-4.28,28.72,4.36,28.82,27.09l0,14.94c8.68-22.66,28.18-52.09,53.71-56.59,19.85-3.5,34.74,7.2,38.18,26.74,1.23,6.93,1.58,16.29,1.67,26l.27,45.77c-.11,15.94,4.58,27.79,17.81,25.46s22.95-15.42,28.26-33.26c4.09-.72,7.37,1.3,7.43,7.14.31,16.52-17.93,51.26-47.24,56.42-23.64,4.17-40.91-9-45.08-32.67-1.45-8.19-1.67-26-1.61-36.76Z" transform="translate(3.35 -100)"/><path class="cls-2" d="M779.27,774.92c-36.91,0-66-24.37-72.41-60.65-5-28.55,4.32-59,26.34-85.85,12.53-15.31,25.68-27.33,42.13-40.19l-.88-104.08a63.39,63.39,0,0,0-.59-9.32l-16.61-25.1,21.81-18.93a61.54,61.54,0,0,1-6.59-18.92c-6-34.24,16.62-66.95,50.51-72.92a63.42,63.42,0,0,1,11-1c29.18,0,53.17,20.49,58.34,49.84A61.53,61.53,0,0,1,883,432.7c1.11,1.56,2,3.05,2.83,4.41,7.73,13.39,8.83,28.23,8.89,41l.15,26.26a47.81,47.81,0,0,1,8.25-.72,45.57,45.57,0,0,1,45.82,47.53c-.57,19.38-13.07,32.78-19.15,39.27-9.58,10.3-22.85,21.47-34.42,30.55-1.31,37.12-8.22,68-20.6,92-17.22,33.39-45,54.33-80.41,60.57A87,87,0,0,1,779.27,774.92Z" transform="translate(3.35 -100)"/><path class="cls-2" d="M855.29,581.19s30.18-18.64,46.37-37.42c4.09-.72,7.43,1.61,7.26,6.19-.07,3.27-2.93,7.34-8.4,13.18-10.1,10.88-28,25.41-45,37.83l0,3.89C856.17,680.15,834,726,787.38,734.19,766,738,749.7,726.86,746.25,707.32c-3.28-18.59,4.75-37.55,17.86-53.51,13.37-16.33,28.09-28.67,51.39-45.78l-1-123.94c0-20.47-4.47-27.16-4.47-27.16s4.23-3.67,15.89-5.73c24.27-4.28,28.71,4.36,28.82,27.09Zm-39.75,47.3c-18.91,14.39-31.48,26-39.33,36.83-10.17,14.15-14.59,26-12.64,37,1.44,8.2,7.22,13.35,17,11.63C802.94,710,815.29,680.53,815.54,628.49Zm14.38-250.14c12-2.11,21,5.06,23,16.41,1.95,11-5,23.3-18.86,25.75-11.34,2-20.29-4.55-22.24-15.58C809.58,392,818,380.46,829.92,378.35Z" transform="translate(3.35 -100)"/><path class="cls-2" d="M958.58,629c-53.24,0-95.44-36.46-105-90.74-6.46-36.61,1.47-72.49,22.33-101,18.92-25.89,47.2-43.81,77.59-49.17a126.74,126.74,0,0,1,21.84-2c40.21,0,70.3,23.31,76.66,59.38,2.34,13.32,2.54,36.11-14.56,59.72a44.63,44.63,0,0,1,24.77,40c.37,33.11-30.24,72.78-82.16,81.94A124.1,124.1,0,0,1,958.58,629Z" transform="translate(3.35 -100)"/><path class="cls-2" d="M1012.59,452.4c6.12,34.66-38.54,57.81-78.38,73.28,7.37,23.4,26.93,38.47,54.66,33.58,21.43-3.78,27.29-18.46,27.29-18.46,3.78-.66,6,.89,6,4.79.18,13.94-17.6,36.57-49.11,42.13-43.17,7.61-73.52-18.89-80.13-56.39-10-56.41,28.08-96.91,67.47-103.85C994.15,421.53,1009.59,435.38,1012.59,452.4Zm-81,58.47c36.84-15.92,49.78-38.35,46.28-58.2-1.5-8.51-7.1-10.77-13.4-9.66C944,446.62,928.58,475.33,931.59,510.87Z" transform="translate(3.35 -100)"/><path d="M216.14,680.43l-21.22-46.62c-5.85-12.94-12.43-18.93-25-16.71l-11.34,2,0,77.66c.11,22.72,5,30,5,30s-4.49,4-17.41,6.32c-23.32,4.11-29.51-5.19-29.69-30.18l-.22-174.46a113.52,113.52,0,0,0-1.15-15.72l-2.83.5c-28.68,5.06-40,23.63-36.86,41.59,1.55,8.83,7.28,13.67,15.16,12.28a13.06,13.06,0,0,0,5.19-1.89,10.21,10.21,0,0,1,.82,2.78c1.33,7.56-4.77,19-20.84,21.87-20.49,3.61-35.32-6.77-38.65-25.68C31.57,533,56.25,505.21,107,496.27l21.75-3.84c23.32-4.11,29.82,5.14,29.69,30.19l-.1,78.65,10.08-1.78c12.92-2.28,23.06-14.79,31.67-39.7L214.2,518.3c10.5-30.77,21.68-44.76,38.38-47.71s28.14,4.79,30.92,20.55a27.65,27.65,0,0,1-8.75,25.91s-5.86-12.94-21-10.27c-14.18,2.5-22.13,12.68-28.22,31.62l-7.3,23.06c-5.42,17.2-11.3,29.94-19.4,35.59,16.67-1.31,27.73,6.16,35,21.77l20.19,42.58c7.24,15.3,13.62,22,23.7,20.19,14.5-2.55,24.92-24.54,27.31-33.08,4.73-.84,7.18,2,7.43,7.13.91,18-19.82,51.59-48.5,56.65C241.63,716.23,227.21,704.48,216.14,680.43Z" transform="translate(3.35 -100)"/><path d="M430.24,582.57a136.27,136.27,0,0,1,1.93,20.13c23-7.63,33.79-31.3,33.79-31.3,4.1-.73,6.86,2,7.07,6.87.05,11.37-16.8,31.89-41.46,39.48-4.1,39.39-28.59,70-71.45,77.59-33.41,5.89-61.71-10.89-68.61-50-10.05-57,16.24-103.27,70.13-112.77C398.51,526.1,423.91,546.64,430.24,582.57ZM386,569.25c-4.35-15.48-13.1-22.71-24.76-20.65-15.76,2.78-29.31,21.74-29.85,70.25-.14,8.47,1.49,25.08,2.88,33,3.5,19.86,13,29.55,26.25,27.22,17-3,28-23.47,29.56-62.73-8.94-4.6-14.54-12.38-16.37-22.78C371.79,582.8,376,573.29,386,569.25Z" transform="translate(3.35 -100)"/><path d="M463.29,438.31c0-20.46-4.47-27.15-4.47-27.15s4.23-3.67,15.89-5.73c24.27-4.28,28.71,4.36,28.82,27.09V613.19c.13,19.14,7.1,27.34,18.45,25.34,12.6-2.22,25-15.12,30.14-33.59,4.1-.72,7.38,1.3,7.44,7.14-.21,17.26-19.51,51.53-50.08,56.92-21.75,3.84-39.38-7.68-43.82-32.89a185.82,185.82,0,0,1-2.44-30.44Z" transform="translate(3.35 -100)"/><path d="M549.06,530.42c-.09-20.78-4.46-27.16-4.46-27.16s4.23-3.67,15.89-5.72c24.26-4.28,28.71,4.36,28.82,27.09l.27,73.39c.18,19.46,7.09,27.34,18.44,25.34,10.71-1.89,23.06-14.79,28.25-33.25,4.1-.73,7.38,1.3,7.44,7.14-.21,17.25-17.62,51.19-48.19,56.58-21.75,3.84-39.37-7.68-43.82-32.89a185.82,185.82,0,0,1-2.44-30.44Zm15.48-105.73c12-2.12,21,5.06,23,16.41,1.94,11-5,23.3-18.86,25.74-11.34,2-20.3-4.54-22.24-15.57C544.2,438.35,552.56,426.8,564.54,424.69Z" transform="translate(3.35 -100)"/><path d="M729,516.9c-.15-15.57-4.13-19.75-11.07-18.52-19.85,3.5-41.51,55.73-41.94,110.4,0,20.47,4.46,27.16,4.46,27.16s-4.23,3.67-15.89,5.72c-24.26,4.28-28.71-4.36-28.82-27.08l-.3-99.38C635.38,494.73,631,488,631,488s4.22-3.67,15.88-5.73c24.27-4.28,28.72,4.36,28.83,27.09l0,14.94c8.68-22.65,28.19-52.09,53.71-56.59,19.86-3.5,34.74,7.2,38.19,26.74,1.22,6.93,1.57,16.29,1.66,26l.27,45.77c-.11,15.94,4.58,27.79,17.81,25.45s22.95-15.42,28.26-33.25c4.1-.72,7.38,1.3,7.43,7.14.31,16.51-17.93,51.25-47.24,56.42-23.64,4.17-40.91-9-45.08-32.67-1.44-8.2-1.66-26-1.61-36.76Z" transform="translate(3.35 -100)"/><path d="M854.93,580.8s30.18-18.65,46.37-37.42c4.1-.73,7.43,1.61,7.27,6.19-.08,3.26-2.94,7.34-8.4,13.18-10.11,10.88-28,25.41-45,37.83l0,3.89c.6,75.28-21.54,121.1-68.18,129.33-21.43,3.77-37.69-7.33-41.14-26.87-3.27-18.59,4.76-37.56,17.86-53.52,13.37-16.33,28.09-28.67,51.4-45.78l-1.06-123.94c0-20.46-4.46-27.16-4.46-27.16s4.22-3.67,15.88-5.72c24.27-4.28,28.72,4.36,28.82,27.08Zm-39.75,47.3c-18.91,14.38-31.48,26-39.32,36.83-10.18,14.14-14.6,26-12.65,37,1.44,8.19,7.23,13.34,17,11.62C802.58,709.61,814.93,680.13,815.18,628.1ZM829.56,378c12-2.12,21,5.06,23,16.4,1.95,11-5,23.31-18.85,25.75-11.35,2-20.3-4.55-22.25-15.57C809.23,391.61,817.59,380.07,829.56,378Z" transform="translate(3.35 -100)"/><path d="M1012.24,452c6.11,34.67-38.55,57.81-78.39,73.29,7.37,23.39,26.93,38.47,54.66,33.58,21.43-3.78,27.29-18.46,27.29-18.46,3.78-.67,6,.89,6,4.78.19,13.94-17.59,36.57-49.11,42.13-43.17,7.61-73.52-18.88-80.13-56.38-10-56.41,28.08-96.91,67.47-103.86C993.79,421.13,1009.23,435,1012.24,452Zm-81,58.48c36.83-15.92,49.77-38.35,46.27-58.21-1.5-8.5-7.09-10.77-13.4-9.66C943.63,446.23,928.22,474.94,931.24,510.48Z" transform="translate(3.35 -100)"/><ellipse class="cls-2" cx="262.35" cy="480" rx="18" ry="13"/><circle class="cls-3" cx="464.85" cy="77.5" r="12.5"/><circle class="cls-3" cx="665.85" cy="121.5" r="12.5"/><circle class="cls-3" cx="351.85" cy="252.5" r="12.5"/><circle class="cls-3" cx="542.85" cy="171.5" r="12.5"/><circle class="cls-3" cx="696.85" cy="269.5" r="12.5"/><circle class="cls-3" cx="590.85" cy="73.5" r="12.5"/><circle class="cls-3" cx="448.85" cy="219.5" r="12.5"/><circle class="cls-3" cx="177.85" cy="697.5" r="12.5"/><circle class="cls-3" cx="328.85" cy="669.5" r="12.5"/><circle class="cls-3" cx="315.85" cy="840.5" r="12.5"/><circle class="cls-3" cx="494.85" cy="819.5" r="12.5"/><circle class="cls-3" cx="409.85" cy="754.5" r="12.5"/><circle class="cls-3" cx="267.85" cy="749.5" r="12.5"/><circle class="cls-3" cx="465.85" cy="636.5" r="12.5"/><circle class="cls-3" cx="562.85" cy="745.5" r="12.5"/><circle class="cls-3" cx="736.85" cy="840.5" r="12.5"/><circle class="cls-3" cx="665.85" cy="634.5" r="12.5"/><circle class="cls-3" cx="748.85" cy="742.5" r="12.5"/><circle class="cls-3" cx="943.85" cy="638.5" r="12.5"/><circle class="cls-3" cx="911.85" cy="742.5" r="12.5"/><circle class="cls-3" cx="583.85" cy="664.5" r="7.5"/><circle class="cls-3" cx="660.85" cy="774.5" r="7.5"/><circle class="cls-3" cx="501.85" cy="730.5" r="7.5"/><circle class="cls-3" cx="401.85" cy="697.5" r="7.5"/><circle class="cls-3" cx="835.85" cy="725.5" r="7.5"/><circle class="cls-3" cx="826.85" cy="802.5" r="7.5"/><circle class="cls-3" cx="409.85" cy="832.5" r="7.5"/><circle class="cls-3" cx="334.85" cy="758.5" r="7.5"/><circle class="cls-3" cx="206.85" cy="778.5" r="7.5"/><circle class="cls-3" cx="530.85" cy="113.5" r="7.5"/><circle class="cls-3" cx="393.85" cy="145.5" r="7.5"/><circle class="cls-3" cx="722.85" cy="199.5" r="7.5"/><circle class="cls-3" cx="634.85" cy="227.5" r="7.5"/><circle class="cls-3" cx="585.85" cy="252.5" r="7.5"/><circle class="cls-3" cx="364.85" cy="337.5" r="7.5"/><circle class="cls-3" cx="530.85" cy="44.5" r="7.5"/><circle class="cls-4" cx="472.85" cy="148.5" r="12.5"/><circle class="cls-4" cx="612.85" cy="165.5" r="12.5"/><circle class="cls-4" cx="530.85" cy="235.5" r="12.5"/><circle class="cls-4" cx="355.85" cy="191.5" r="12.5"/><circle class="cls-4" cx="748.85" cy="245.5" r="12.5"/><circle class="cls-4" cx="640.85" cy="282.5" r="12.5"/><circle class="cls-4" cx="728.85" cy="145.5" r="12.5"/><circle class="cls-4" cx="562.85" cy="625.5" r="12.5"/><circle class="cls-4" cx="254.85" cy="690.5" r="12.5"/><circle class="cls-4" cx="267.85" cy="808.5" r="12.5"/><circle class="cls-4" cx="462.85" cy="774.5" r="12.5"/><circle class="cls-4" cx="615.85" cy="812.5" r="12.5"/><circle class="cls-4" cx="660.85" cy="707.5" r="12.5"/><circle class="cls-4" cx="894.85" cy="672.5" r="12.5"/><circle class="cls-4" cx="943.85" cy="570.5" r="12.5"/><circle class="cls-4" cx="761.85" cy="800.5" r="12.5"/><circle class="cls-4" cx="519.85" cy="678.5" r="12.5"/><circle class="cls-4" cx="792.85" cy="697.5" r="12.5"/><circle class="cls-4" cx="673.85" cy="848.5" r="12.5"/><circle class="cls-4" cx="465.85" cy="697.5" r="7.5"/><circle class="cls-4" cx="409.85" cy="656.5" r="7.5"/><circle class="cls-4" cx="348.85" cy="718.5" r="7.5"/><circle class="cls-4" cx="364.85" cy="800.5" r="7.5"/><circle class="cls-4" cx="610.85" cy="733.5" r="7.5"/><circle class="cls-4" cx="726.85" cy="690.5" r="7.5"/><circle class="cls-4" cx="874.85" cy="788.5" r="7.5"/><circle class="cls-4" cx="948.85" cy="697.5" r="7.5"/><circle class="cls-4" cx="655.85" cy="73.5" r="7.5"/><circle class="cls-4" cx="408.85" cy="93.5" r="7.5"/><circle class="cls-4" cx="408.85" cy="270.5" r="7.5"/><circle class="cls-4" cx="687.85" cy="316.5" r="7.5"/><circle class="cls-4" cx="320.85" cy="309.5" r="7.5"/><circle class="cls-4" cx="498.85" cy="199.5" r="7.5"/><circle class="cls-4" cx="768.85" cy="196.5" r="7.5"/><circle class="cls-4" cx="678.85" cy="199.5" r="7.5"/></g></svg>